/* XPM */
static char *d7c8f486ebeb4d47a137cd6dc2e078ae[] = {
/* columns rows colors chars-per-pixel */
"32 32 12 1 ",
"  c black",
". c #703700",
"X c #814005",
"o c #924809",
"O c #994C0B",
"+ c #AB5410",
"@ c #B25912",
"# c #BA5D14",
"$ c #D2681B",
"% c #DB6D1D",
"& c #F07823",
"* c #FF7F27",
/* pixels */
"                                ",
"                                ",
"                                ",
"                                ",
"             ******             ",
"          ************          ",
"        ****************        ",
"       ******************       ",
"      ********************      ",
"     **********************     ",
"     *********$o..%********     ",
"    ********%o....$********     ",
"    ********@X#+..$*********    ",
"   *********&**@..$*********    ",
"   ************@..$*********    ",
"   ************@..$**********   ",
"   ************@..$**********   ",
"   ************@..$**********   ",
"   ************@..$**********   ",
"    ***********@..$*********    ",
"    ***********@..$*********    ",
"     *******#.......O******     ",
"     *******#.......O*****      ",
"      ********************      ",
"       ******************       ",
"        ****************        ",
"          *&**********          ",
"            ********            ",
"                                ",
"                                ",
"                                ",
"                                "
};
