/* XPM */
static char *exit_1__dragged_1721656305[] = {
/* columns rows colors chars-per-pixel */
"32 32 20 1 ",
"  c #040103",
". c #257CBB",
"X c #1F6AA1",
"o c #0C283D",
"O c #2784C7",
"+ c #2273AD",
"@ c #14466B",
"# c #113A58",
"$ c #164A72",
"% c #195681",
"& c #1B5D8D",
"* c #134162",
"= c #1D6497",
"- c #18527C",
"; c #2A8FD8",
": c #0F334D",
"> c #0B2030",
", c #09131E",
"< c #070F18",
"1 c #05080D",
/* pixels */
"                                ",
"            1,,<                ",
"           1&OO.:1              ",
"           1*%O;O-<             ",
"            >-+.;O$,            ",
"           >X++X+;.&,           ",
"           *+X&%%O;+#           ",
"         1<&X%%%-&;+&<          ",
"        1,oX+=%$@$..Xo1         ",
"         1-O;X$@*#==X$#         ",
"         o+;+%$@##$-&$=,        ",
"         #O;&-@*#::*==+,        ",
"        1$O.%$@*#oo*&+.,        ",
"         @;=-$@*:oo:%+.,        ",
"         -O&%$@#:o>>-..<        ",
"        <.+%%$@#:o>o-O-         ",
"        >OX%%$@#:o>:&O$         ",
"        #.=%%$@#:o>#&O*         ",
"        :.=%%$@##oo*XO>         ",
"        $O=%%$@##:o*..>         ",
"        $.X&%$@*###$OX<         ",
"        :-&+.-@*###XO=<         ",
"        ,##+;&@@*#@..*          ",
"        ,##XO+$@@*$+Xo          ",
"        1>>=+O%$$$%+=<          ",
"           #+;+--&XX#1          ",
"           ,=O;X&X+-1,>         ",
"            oXOO.+=@<>o         ",
"             #XO;.=+o           ",
"             1<:.O.:            ",
"                <,<             ",
"                                "
};
