/* XPM */
static char *_95d43ecd3754824a03036226c997791EGZYlFk10D27oYeQ[] = {
/* columns rows colors chars-per-pixel */
"32 32 196 2 ",
"   c None",
".  c #240C04",
"X  c #2D0E06",
"o  c #261106",
"O  c #2A160B",
"+  c #34180C",
"@  c #251A1C",
"#  c #2A1D1C",
"$  c #291914",
"%  c #311C13",
"&  c #3C1C12",
"*  c #381F1A",
"=  c #3B261C",
"-  c #382218",
";  c #271C20",
":  c #24212B",
">  c #3C2922",
",  c #362927",
"<  c #342336",
"1  c #521E0C",
"2  c #4A1C10",
"3  c #4B2314",
"4  c #582918",
"5  c #64331B",
"6  c #693519",
"7  c #723B1C",
"8  c #70351C",
"9  c #622B1A",
"0  c #412E26",
"q  c #482C20",
"w  c #45322A",
"e  c #4B382F",
"r  c #58342B",
"t  c #4B3932",
"y  c #523533",
"u  c #563B33",
"i  c #6E3C21",
"p  c #68382A",
"a  c #703E24",
"s  c #653B31",
"d  c #6F4029",
"f  c #7C4424",
"g  c #75452A",
"h  c #6E4331",
"j  c #754732",
"k  c #32294C",
"l  c #323B4F",
"z  c #302C56",
"x  c #333D53",
"c  c #303C71",
"v  c #4E4041",
"b  c #584849",
"n  c #574353",
"m  c #73564B",
"M  c #76625C",
"N  c #4B506C",
"B  c #5D566E",
"V  c #655B61",
"C  c #6D6368",
"Z  c #746A69",
"A  c #746E76",
"S  c #767176",
"D  c #7A747D",
"F  c #7F7A7E",
"G  c #844425",
"H  c #854927",
"J  c #844C2B",
"K  c #8A4D2A",
"L  c #8F4221",
"P  c #914C2D",
"I  c #93552E",
"U  c #8F4933",
"Y  c #824D35",
"T  c #9D4E35",
"R  c #925631",
"E  c #9B5C35",
"W  c #9A5837",
"Q  c #875337",
"!  c #A24E30",
"~  c #A55D3D",
"^  c #97613F",
"/  c #A3643B",
"(  c #A7693F",
")  c #C45B3C",
"_  c #965942",
"`  c #83685F",
"'  c #986442",
"]  c #AC6D43",
"[  c #A06041",
"{  c #A6724B",
"}  c #B17146",
"|  c #B57549",
" . c #B9784B",
".. c #BB6D51",
"X. c #A77A57",
"o. c #BC7D51",
"O. c #B37554",
"+. c #B66446",
"@. c #876F67",
"#. c #867778",
"$. c #937C7A",
"%. c #AF7660",
"&. c #B77660",
"*. c #C46D4D",
"=. c #C97556",
"-. c #CE7F62",
";. c #BE8053",
":. c #95817F",
">. c #BD8764",
",. c #CC8B5C",
"<. c #C38356",
"1. c #C98B6A",
"2. c #CF976A",
"3. c #D39364",
"4. c #D89969",
"5. c #CF9676",
"6. c #D49776",
"7. c #EA8B69",
"8. c #E59373",
"9. c #E39A79",
"0. c #E3A575",
"q. c #2C6CBB",
"w. c #51638D",
"e. c #5D6790",
"r. c #7C7780",
"t. c #7E7984",
"y. c #6E7598",
"u. c #5879B4",
"i. c #827D84",
"p. c #827E89",
"a. c #2C8CDC",
"s. c #3597E1",
"d. c #5B86CB",
"f. c #85818B",
"g. c #8C8994",
"h. c #8B8696",
"j. c #94929E",
"k. c #948B90",
"l. c #A99C9B",
"z. c #BCA69F",
"x. c #9694A1",
"c. c #9C99A6",
"v. c #9E9DAB",
"b. c #A19FAF",
"n. c #BB9FA6",
"m. c #A0A0AE",
"M. c #A5A4B4",
"N. c #ADA6B2",
"B. c #AAABBC",
"V. c #A6A8B9",
"C. c #CD9F83",
"Z. c #CA9E97",
"A. c #D4AE93",
"S. c #D0BD98",
"D. c #D0A98D",
"F. c #E0AC86",
"G. c #F5AE8C",
"H. c #F1A080",
"J. c #EDB181",
"K. c #F6BD8C",
"L. c #F7B18D",
"P. c #E2AE90",
"I. c #E6B89B",
"U. c #F0B794",
"Y. c #FBB996",
"T. c #C8A9A0",
"R. c #C0BAB8",
"E. c #C6AAB1",
"W. c #EDBDA1",
"Q. c #FBC19C",
"!. c #D1C8A9",
"~. c #F8C5A6",
"^. c #FAD5AA",
"/. c #EEDFBC",
"(. c #F5D9B2",
"). c #E8D0A9",
"_. c #FCE4BB",
"`. c #87A7C8",
"'. c #ADB0C3",
"]. c #B4B6CA",
"[. c #B5B7CB",
"{. c #BED6CF",
"}. c #AAC8D6",
"|. c #9FD3E3",
" X c #BAD9E3",
".X c #CED6CB",
"XX c #D1CFD6",
"oX c #C6D8D0",
"OX c #DAD9D8",
"+X c #F8EEC4",
"@X c #FEF5C6",
"#X c #FEFCCE",
"$X c #FCF8C8",
"%X c #FDFAD3",
"&X c #EEEEF3",
"*X c #E7E6EA",
/* pixels */
"                                                                ",
"                                    Q Y                         ",
"                              ] / / / E R J g ' ^               ",
"                            | | o.<.o.} ( R f g j               ",
"                          ;. .,.4.4.3.;.} E f 5 a j             ",
"                        2.| ,.0.K.K.0.<.} R 6 g E J h           ",
"                      2.}  .3.J.K.J.3.| E 7 i o.( K d B         ",
"                      ] /  .,.4.4.<.( H 8 f o.o./ H i B d.      ",
"                      / ( } | ] W H H [ >.>.} ( I f 6 b u.      ",
"                    / E E E K G ~ 1.).+X@X(.O.I H 7 4 y w.      ",
"                    W K H 8 ~ F._.%X%X).C.X.5.R f 6 5 r N       ",
"                    L 6 3 4 1.+X%X!.X.j r m P.1.H f 6.C.#.      ",
"                      1 4 n s S.#X{ y < k h.W.9.K ! 7.Y.I.      ",
"                        p y.k !.#X$Xe.z c `.~.9.P ) L.^.^.      ",
"                          }.q.{.$X@X|.a.s. XY.8.*.7.^.(.        ",
"                          ~.}./._._._.oX.X~.H.=.T _ F.          ",
"              N.M.N.E.n.  Z.I.I.U.U.Q.Y.G.8.*.U 3 3             ",
"              M.V.B.'.'.].[.[.V.&.-.=.*.+.U 2 X   3             ",
"              c.v.b.M.M.V.V.B.B., ` * @.z.y % - ,               ",
"              j.j.x.j.f.j.v.m.M.b *Xt OXR.t w w ,               ",
"                g.g.g.Z i.x.x.c.V XXw &Xk.0 > 0 > x             ",
"                p.f.f.F #.g.g.g.C M % l.b > > 0 > l             ",
"                D r.t.t.p.p.f.f.A q m A.T.#.w = % #             ",
"                S D A A A D D r.D s (._.~.T.e O $               ",
"                  C $.:.#.Z S F A u I.^.G.%.= . :               ",
"                      1...      v * j O.W & . . @               ",
"                                  . . . . . . o @               ",
"                                  o . . $ O % % #               ",
"                                  O o . ; % - - #               ",
"                                  3 + X     - - $               ",
"                                            9 1 &               ",
"                                                                "
};
