/* XPM */
static char *d287d521b1d04812b03b3129a788261a[] = {
/* columns rows colors chars-per-pixel */
"32 32 11 1 ",
"  c black",
". c #703700",
"X c #783B02",
"o c #814005",
"O c #894407",
"+ c #924809",
"@ c #994C0B",
"# c #C26116",
"$ c #CA6418",
"% c #F07823",
"& c #FF7F27",
/* pixels */
"                                ",
"                                ",
"                                ",
"                                ",
"             &&&&&&             ",
"          &&&&&&&&&&&&          ",
"        &&&&&&&&&&&&&&&&        ",
"       &&&&&&.......&&&&&       ",
"      &&&&&..........&&&&&      ",
"     &&&&&............&&&&&     ",
"     &&&&&....&&&&.....&&&&     ",
"    &&&&&...O&&&&&&....&&&&     ",
"    &&&&&...+&&&&&&X...&&&&&    ",
"   &&&&&o...&&&&&&&+...&&&&&    ",
"   &&&&&....&&&&&&&&...&&&&&    ",
"   &&&&&....&&&&&&&&...&&&&&&   ",
"   &&&&&....&&&&&&&&...&&&&&&   ",
"   &&&&&....&&&&&&&&...&&&&&&   ",
"   &&&&&....&&&&&&&&...&&&&&&   ",
"    &&&&+...&&&&&&&X...&&&&&    ",
"    &&&&@...O&&&&&&....&&&&&    ",
"     &&&&....%&&&&$...&&&&&     ",
"     &&&&....#&&&&....&&&&      ",
"      &&&&...X.......&&&&&      ",
"       &&&&..........&&&&       ",
"        &&&&&.....&&&&&&        ",
"          &%&&&&&&&&&&          ",
"            &&&&&&&&            ",
"                                ",
"                                ",
"                                ",
"                                "
};
