/* XPM */
static char *e8d259a78c6e4c529036c942c8b517ec[] = {
/* columns rows colors chars-per-pixel */
"32 32 4 1 ",
"  c black",
". c gray29",
"X c gray50",
"o c gray57",
/* pixels */
"                                ",
"XXXXXX XXXXXXXXXXXXXXXXX XXXXXXX",
"oooooX XoooooooooooooooX Xoooooo",
"oooooX XoooooooooooooooX Xoo.ooo",
"oooooX Xooo...oooooooooX Xoo..oo",
"o...oX Xooooo.......oooX Xoo.ooo",
"oooooX XoooooooooooooooX Xoo..oo",
"oooooX XoooooooooooooooX Xoooo.o",
"oooooX XoooooooooooooooX Xoooooo",
"XXXXXX XXXXXXXXXXXXXXXXX XXXXXXX",
"                                ",
"XXXXXXXXXX XXXXXXXXXXXXXXXX XXXX",
"oooooooooX XooooooooooooooX Xooo",
"oooooooooX XooooooooooooooX Xooo",
"oooo..oooX Xooooooooo..oooX Xooo",
"ooo..ooooX Xoooooo....ooooX Xo.o",
"ooo.oooooX Xoooo...o...oooX Xo.o",
"o...oo..oX Xoooooooooo.oooX Xooo",
"oo..oooooX XooooooooooooooX Xooo",
"oooooooooX XooooooooooooooX Xooo",
"XXXXXXXXXX XXXXXXXXXXXXXXXX XXXX",
"                                ",
"XXX XXXXXXXXXXXXXXXXX XXXXXXXXXX",
"ooX XoooooooooooooooX Xooooooooo",
"ooX XoooooooooooooooX Xooooooooo",
"ooX Xooooooooooo...oX Xooo....o.",
"ooX Xoooooo..oo..oooX Xoooooo...",
"ooX Xooooooo....ooooX Xooooooooo",
"ooX Xoooo......oooooX Xooooooooo",
"ooX XoooooooooooooooX Xooooooooo",
"XXX XXXXXXXXXXXXXXXXX XXXXXXXXXX",
"                                "
};
